<?xml version="1.0" encoding="UTF-8" standalone="no"?>
<!-- Created with Inkscape (http://www.inkscape.org/) -->

<svg
   xmlns:dc="http://purl.org/dc/elements/1.1/"
   xmlns:cc="http://creativecommons.org/ns#"
   xmlns:rdf="http://www.w3.org/1999/02/22-rdf-syntax-ns#"
   xmlns:svg="http://www.w3.org/2000/svg"
   xmlns="http://www.w3.org/2000/svg"
   xmlns:sodipodi="http://sodipodi.sourceforge.net/DTD/sodipodi-0.dtd"
   xmlns:inkscape="http://www.inkscape.org/namespaces/inkscape"
   id="svg2"
   version="1.1"
   inkscape:version="0.91 r"
   xml:space="preserve"
   width="939.28204"
   height="1349.2961"
   viewBox="0 0 939.28204 1349.2961"
   sodipodi:docname="cross.svg"><metadata
     id="metadata8"><rdf:RDF><cc:Work
         rdf:about=""><dc:format>image/svg+xml</dc:format><dc:type
           rdf:resource="http://purl.org/dc/dcmitype/StillImage" /><dc:title></dc:title></cc:Work></rdf:RDF></metadata><defs
     id="defs6" /><sodipodi:namedview
     pagecolor="#ffffff"
     bordercolor="#666666"
     borderopacity="1"
     objecttolerance="10"
     gridtolerance="10"
     guidetolerance="10"
     inkscape:pageopacity="0"
     inkscape:pageshadow="2"
     inkscape:window-width="1920"
     inkscape:window-height="1026"
     id="namedview4"
     showgrid="false"
     inkscape:zoom="0.34981201"
     inkscape:cx="337.90514"
     inkscape:cy="959.75749"
     inkscape:window-x="0"
     inkscape:window-y="25"
     inkscape:window-maximized="1"
     inkscape:current-layer="g10" /><g
     id="g10"
     inkscape:groupmode="layer"
     inkscape:label="cross"
     transform="matrix(1.25,0,0,-1.25,0,1349.2961)"><g
       id="g12"
       transform="translate(0,144)"><text
         transform="matrix(0.85692349,0,0,-1,384.97714,899.57424)"
         style="font-variant:normal;font-weight:normal;font-size:38.38695145px;font-family:'DejaVu Sans';-inkscape-font-specification:DejaVuSans;writing-mode:lr-tb;fill:#000000;fill-opacity:1;fill-rule:nonzero;stroke:none"
         id="text14"><tspan
           x="0 24.337328 48.559494"
           y="0"
           sodipodi:role="line"
           id="tspan16">SEN</tspan></text>
<g
         id="g18"
         transform="matrix(0.646293,0,0,-1,0,1079.4369)"><path
           d="m 566.04,634.203 -17.636,0 0,-145.598 17.636,0"
           style="fill:none;stroke:#000000;stroke-width:2.13265109;stroke-linecap:butt;stroke-linejoin:miter;stroke-miterlimit:4;stroke-dasharray:none;stroke-opacity:1"
           id="path20"
           inkscape:connector-curvature="0" /></g><g
         id="g22"
         transform="matrix(0.646293,0,0,-1,0,1079.4369)"><path
           d="m 741.313,635.059 17.636,0 0,-145.598 -17.636,0"
           style="fill:none;stroke:#000000;stroke-width:2.13265109;stroke-linecap:butt;stroke-linejoin:miter;stroke-miterlimit:4;stroke-dasharray:none;stroke-opacity:1"
           id="path24"
           inkscape:connector-curvature="0" /></g><g
         id="g26"
         transform="matrix(0.667745,0,0,-1,0,1079.4369)"><path
           d="m 541.234,593.793 90.996,0"
           style="fill:none;stroke:#000000;stroke-width:1.59297001;stroke-linecap:square;stroke-linejoin:miter;stroke-miterlimit:4;stroke-dasharray:none;stroke-opacity:1"
           id="path28"
           inkscape:connector-curvature="0" /></g><g
         id="g30"
         transform="matrix(0.667745,0,0,-1,0,1079.4369)"><path
           d="m 540.134,496.051 93.242,0 0,130.344 -93.242,0 0,-130.344 z"
           style="fill:#3737c8;fill-opacity:0.24705882;stroke:none;stroke-width:1.59297001;stroke-linecap:butt;stroke-linejoin:miter;stroke-miterlimit:3.79999995;stroke-dasharray:none;stroke-opacity:1"
           id="path32"
           inkscape:connector-curvature="0" /></g><g
         id="g34"
         transform="matrix(0.667745,0,0,-1,0,1079.4369)"><path
           d="m 541.269,561.191 90.996,0"
           style="fill:none;stroke:#000000;stroke-width:1.59297001;stroke-linecap:square;stroke-linejoin:miter;stroke-miterlimit:4;stroke-dasharray:none;stroke-opacity:1"
           id="path36"
           inkscape:connector-curvature="0" /></g><g
         id="g38"
         transform="matrix(0.667745,0,0,-1,0,1079.4369)"><path
           d="m 541.269,528.59 90.996,0"
           style="fill:none;stroke:#000000;stroke-width:1.59297001;stroke-linecap:square;stroke-linejoin:miter;stroke-miterlimit:4;stroke-dasharray:none;stroke-opacity:1"
           id="path40"
           inkscape:connector-curvature="0" /></g><g
         id="g42"
         transform="matrix(0.646293,0,0,-1,0,1079.4369)"><path
           d="m 590.585,496.859 0,128.735"
           style="fill:none;stroke:#000000;stroke-width:1.61919105;stroke-linecap:square;stroke-linejoin:miter;stroke-miterlimit:4;stroke-dasharray:none;stroke-opacity:1"
           id="path44"
           inkscape:connector-curvature="0" /></g><g
         id="g46"
         transform="matrix(0.646293,0,0,-1,0,1079.4369)"><path
           d="m 623.133,496.852 0,128.734"
           style="fill:none;stroke:#000000;stroke-width:1.61919105;stroke-linecap:square;stroke-linejoin:miter;stroke-miterlimit:4;stroke-dasharray:none;stroke-opacity:1"
           id="path48"
           inkscape:connector-curvature="0" /></g><g
         id="g50"
         transform="matrix(0.667745,0,0,-1,0,1079.4369)"><path
           d="m 634.64,593.75 90.989,0"
           style="fill:none;stroke:#000000;stroke-width:1.59297001;stroke-linecap:square;stroke-linejoin:miter;stroke-miterlimit:4;stroke-dasharray:none;stroke-opacity:1"
           id="path52"
           inkscape:connector-curvature="0" /></g><g
         id="g54"
         transform="matrix(0.667745,0,0,-1,0,1079.4369)"><path
           d="m 633.534,496.004 93.248,0 0,130.348 -93.248,0 0,-130.348 z"
           style="fill:#3737c8;fill-opacity:0.24705882;stroke:none;stroke-width:1.59297001;stroke-linecap:butt;stroke-linejoin:miter;stroke-miterlimit:3.79999995;stroke-dasharray:none;stroke-opacity:1"
           id="path56"
           inkscape:connector-curvature="0" /></g><g
         id="g58"
         transform="matrix(0.667745,0,0,-1,0,1079.4369)"><path
           d="m 634.675,561.148 90.99,0"
           style="fill:none;stroke:#000000;stroke-width:1.59297001;stroke-linecap:square;stroke-linejoin:miter;stroke-miterlimit:4;stroke-dasharray:none;stroke-opacity:1"
           id="path60"
           inkscape:connector-curvature="0" /></g><g
         id="g62"
         transform="matrix(0.667745,0,0,-1,0,1079.4369)"><path
           d="m 634.675,528.547 90.99,0"
           style="fill:none;stroke:#000000;stroke-width:1.59297001;stroke-linecap:square;stroke-linejoin:miter;stroke-miterlimit:4;stroke-dasharray:none;stroke-opacity:1"
           id="path64"
           inkscape:connector-curvature="0" /></g><g
         id="g66"
         transform="matrix(0.646293,0,0,-1,0,1079.4369)"><path
           d="m 687.085,496.816 0,128.735"
           style="fill:none;stroke:#000000;stroke-width:1.61919105;stroke-linecap:square;stroke-linejoin:miter;stroke-miterlimit:4;stroke-dasharray:none;stroke-opacity:1"
           id="path68"
           inkscape:connector-curvature="0" /></g><g
         id="g70"
         transform="matrix(0.646293,0,0,-1,0,1079.4369)"><path
           d="m 719.638,496.805 0,128.734"
           style="fill:none;stroke:#000000;stroke-width:1.61919105;stroke-linecap:square;stroke-linejoin:miter;stroke-miterlimit:4;stroke-dasharray:none;stroke-opacity:1"
           id="path72"
           inkscape:connector-curvature="0" /></g><g
         id="g74"
         transform="matrix(0.761938,0,0,-1,0,1079.4369)"><path
           d="m 162.569,342.215 -22.476,0 0,-159.633 22.476,0"
           style="fill:none;stroke:#000000;stroke-width:3.30074096;stroke-linecap:butt;stroke-linejoin:miter;stroke-miterlimit:4;stroke-dasharray:none;stroke-opacity:1"
           id="path76"
           inkscape:connector-curvature="0" /></g><g
         id="g78"
         transform="matrix(0.761938,0,0,-1,0,1079.4369)"><path
           d="m 653.391,340.609 22.476,0 0,-159.629 -22.476,0"
           style="fill:none;stroke:#000000;stroke-width:3.30074096;stroke-linecap:butt;stroke-linejoin:miter;stroke-miterlimit:4;stroke-dasharray:none;stroke-opacity:1"
           id="path80"
           inkscape:connector-curvature="0" /></g><g
         id="g82"
         transform="matrix(0,1,0.761938,0,0,1079.4369)"><path
           d="m -199.07,149.675 -126.566,0 0,249.779 126.566,0 0,-249.779 z"
           style="fill:#668000;fill-opacity:0.24705882;stroke:none;stroke-width:3.53614306;stroke-linecap:butt;stroke-linejoin:miter;stroke-miterlimit:3.79999995;stroke-dasharray:none;stroke-opacity:1"
           id="path84"
           inkscape:connector-curvature="0" /></g><g
         id="g86"
         transform="matrix(0.761938,0,0,-1,0,1079.4369)"><path
           d="m 406.688,342.82 1.323,0 0,-159.629 -1.615,0"
           style="fill:none;stroke:#000000;stroke-width:3.30074096;stroke-linecap:butt;stroke-linejoin:miter;stroke-miterlimit:4;stroke-dasharray:none;stroke-opacity:1"
           id="path88"
           inkscape:connector-curvature="0" /></g><g
         id="g90"
         transform="matrix(0,1,0.761938,0,0,1079.4369)"><path
           d="m -199.141,415.198 -126.566,0 0,249.779 126.566,0 0,-249.779 z"
           style="fill:#3737c8;fill-opacity:0.24705882;stroke:none;stroke-width:3.53614306;stroke-linecap:butt;stroke-linejoin:miter;stroke-miterlimit:3.79999995;stroke-dasharray:none;stroke-opacity:0.24705882"
           id="path92"
           inkscape:connector-curvature="0" /></g><text
         transform="matrix(0.70008986,0,0,-1,536.02962,81.752189)"
         style="font-variant:normal;font-weight:normal;font-size:80.22968292px;font-family:'DejaVu Sans';-inkscape-font-specification:DejaVuSans;writing-mode:lr-tb;fill:#000000;fill-opacity:1;fill-rule:nonzero;stroke:none"
         id="text94"><tspan
           x="0"
           y="0"
           id="tspan96">=</tspan></text>
<text
         transform="matrix(0.85692349,0,0,-1,179.98869,899.03068)"
         style="font-variant:normal;font-weight:normal;font-size:38.38695145px;font-family:'DejaVu Sans';-inkscape-font-specification:DejaVuSans;writing-mode:lr-tb;fill:#000000;fill-opacity:1;fill-rule:nonzero;stroke:none"
         id="text98"><tspan
           x="0 29.557953 53.780121"
           y="0"
           sodipodi:role="line"
           id="tspan100">DEP</tspan><tspan
           x="239.21443"
           y="92.256592"
           id="tspan102">H</tspan></text>
<text
         transform="matrix(0.85692349,0,0,-1,409.7124,799.0967)"
         style="font-variant:normal;font-weight:normal;font-size:24.95151711px;font-family:'DejaVu Sans';-inkscape-font-specification:DejaVuSans;writing-mode:lr-tb;fill:#000000;fill-opacity:1;fill-rule:nonzero;stroke:none"
         id="text104"><tspan
           x="0 15.819263 31.563671"
           y="0"
           sodipodi:role="line"
           id="tspan106">SEN</tspan></text>
<text
         transform="matrix(0.85692349,0,0,-1,177.44278,808.17081)"
         style="font-variant:normal;font-weight:normal;font-size:38.38695145px;font-family:'DejaVu Sans';-inkscape-font-specification:DejaVuSans;writing-mode:lr-tb;fill:#000000;fill-opacity:1;fill-rule:nonzero;stroke:none"
         id="text108"><tspan
           x="0"
           y="0"
           id="tspan110">H</tspan></text>
<text
         transform="matrix(0.85692349,0,0,-1,202.17804,800.49342)"
         style="font-variant:normal;font-weight:normal;font-size:24.95151711px;font-family:'DejaVu Sans';-inkscape-font-specification:DejaVuSans;writing-mode:lr-tb;fill:#000000;fill-opacity:1;fill-rule:nonzero;stroke:none"
         id="text112"><tspan
           x="0 19.212669 34.957077"
           y="0"
           sodipodi:role="line"
           id="tspan114">DEP</tspan></text>
<text
         transform="matrix(1,0,0,-1,58.891591,814.4878)"
         style="font-variant:normal;font-weight:normal;font-size:32px;font-family:'DejaVu Sans';-inkscape-font-specification:DejaVuSans;writing-mode:lr-tb;fill:#000000;fill-opacity:1;fill-rule:nonzero;stroke:none"
         id="text122"><tspan
           x="0"
           y="0"
           id="tspan124">n</tspan></text>
<g
         id="g126"
         transform="matrix(0.646293,0,0,-1,0,1079.4369)"><path
           d="m 241.727,635.09 -17.637,0 0,-145.598 17.637,0"
           style="fill:none;stroke:#000000;stroke-width:2.13265109;stroke-linecap:butt;stroke-linejoin:miter;stroke-miterlimit:4;stroke-dasharray:none;stroke-opacity:1"
           id="path128"
           inkscape:connector-curvature="0" /></g><g
         id="g130"
         transform="matrix(0.646293,0,0,-1,0,1079.4369)"><path
           d="m 416.999,635.941 17.637,0 0,-145.597 -17.637,0"
           style="fill:none;stroke:#000000;stroke-width:2.13265109;stroke-linecap:butt;stroke-linejoin:miter;stroke-miterlimit:4;stroke-dasharray:none;stroke-opacity:1"
           id="path132"
           inkscape:connector-curvature="0" /></g><g
         id="g134"
         transform="matrix(0.667745,0,0,-1,0,1079.4369)"><path
           d="m 227.339,594.68 90.996,0"
           style="fill:none;stroke:#000000;stroke-width:1.59297001;stroke-linecap:square;stroke-linejoin:miter;stroke-miterlimit:4;stroke-dasharray:none;stroke-opacity:1"
           id="path136"
           inkscape:connector-curvature="0" /></g><g
         id="g138"
         transform="matrix(0.667745,0,0,-1,0,1079.4369)"><path
           d="m 226.24,496.934 93.242,0 0,130.348 -93.242,0 0,-130.348 z"
           style="fill:#668000;fill-opacity:0.24705882;stroke:none;stroke-width:1.59297001;stroke-linecap:butt;stroke-linejoin:miter;stroke-miterlimit:3.79999995;stroke-dasharray:none;stroke-opacity:1"
           id="path140"
           inkscape:connector-curvature="0" /></g><g
         id="g142"
         transform="matrix(0.667745,0,0,-1,0,1079.4369)"><path
           d="m 227.375,562.078 90.995,0"
           style="fill:none;stroke:#000000;stroke-width:1.59297001;stroke-linecap:square;stroke-linejoin:miter;stroke-miterlimit:4;stroke-dasharray:none;stroke-opacity:1"
           id="path144"
           inkscape:connector-curvature="0" /></g><g
         id="g146"
         transform="matrix(0.667745,0,0,-1,0,1079.4369)"><path
           d="m 227.375,529.477 90.995,0"
           style="fill:none;stroke:#000000;stroke-width:1.59297001;stroke-linecap:square;stroke-linejoin:miter;stroke-miterlimit:4;stroke-dasharray:none;stroke-opacity:1"
           id="path148"
           inkscape:connector-curvature="0" /></g><g
         id="g150"
         transform="matrix(0.646293,0,0,-1,0,1079.4369)"><path
           d="m 266.272,497.746 0,128.734"
           style="fill:none;stroke:#000000;stroke-width:1.61919105;stroke-linecap:square;stroke-linejoin:miter;stroke-miterlimit:4;stroke-dasharray:none;stroke-opacity:1"
           id="path152"
           inkscape:connector-curvature="0" /></g><g
         id="g154"
         transform="matrix(0.646293,0,0,-1,0,1079.4369)"><path
           d="m 298.825,497.734 0,128.735"
           style="fill:none;stroke:#000000;stroke-width:1.61919105;stroke-linecap:square;stroke-linejoin:miter;stroke-miterlimit:4;stroke-dasharray:none;stroke-opacity:1"
           id="path156"
           inkscape:connector-curvature="0" /></g><g
         id="g158"
         transform="matrix(0.667745,0,0,-1,0,1079.4369)"><path
           d="m 320.745,594.633 90.995,0"
           style="fill:none;stroke:#000000;stroke-width:1.59297001;stroke-linecap:square;stroke-linejoin:miter;stroke-miterlimit:4;stroke-dasharray:none;stroke-opacity:1"
           id="path160"
           inkscape:connector-curvature="0" /></g><g
         id="g162"
         transform="matrix(0.667745,0,0,-1,0,1079.4369)"><path
           d="m 319.645,496.891 93.242,0 0,130.344 -93.242,0 0,-130.344 z"
           style="fill:#668000;fill-opacity:0.24705882;stroke:none;stroke-width:1.59297001;stroke-linecap:butt;stroke-linejoin:miter;stroke-miterlimit:3.79999995;stroke-dasharray:none;stroke-opacity:1"
           id="path164"
           inkscape:connector-curvature="0" /></g><g
         id="g166"
         transform="matrix(0.667745,0,0,-1,0,1079.4369)"><path
           d="m 320.78,562.031 90.996,0"
           style="fill:none;stroke:#000000;stroke-width:1.59297001;stroke-linecap:square;stroke-linejoin:miter;stroke-miterlimit:4;stroke-dasharray:none;stroke-opacity:1"
           id="path168"
           inkscape:connector-curvature="0" /></g><g
         id="g170"
         transform="matrix(0.667745,0,0,-1,0,1079.4369)"><path
           d="m 320.78,529.434 90.996,0"
           style="fill:none;stroke:#000000;stroke-width:1.59297001;stroke-linecap:square;stroke-linejoin:miter;stroke-miterlimit:4;stroke-dasharray:none;stroke-opacity:1"
           id="path172"
           inkscape:connector-curvature="0" /></g><g
         id="g174"
         transform="matrix(0.646293,0,0,-1,0,1079.4369)"><path
           d="m 362.778,497.699 0,128.735"
           style="fill:none;stroke:#000000;stroke-width:1.61919105;stroke-linecap:square;stroke-linejoin:miter;stroke-miterlimit:4;stroke-dasharray:none;stroke-opacity:1"
           id="path176"
           inkscape:connector-curvature="0" /></g><g
         id="g178"
         transform="matrix(0.646293,0,0,-1,0,1079.4369)"><path
           d="m 395.325,497.691 0,128.735"
           style="fill:none;stroke:#000000;stroke-width:1.61919105;stroke-linecap:square;stroke-linejoin:miter;stroke-miterlimit:4;stroke-dasharray:none;stroke-opacity:1"
           id="path180"
           inkscape:connector-curvature="0" /></g><text
         transform="matrix(0.85692349,0,0,-1,390.44162,606.72834)"
         style="font-variant:normal;font-weight:normal;font-size:38.38695145px;font-family:'DejaVu Sans';-inkscape-font-specification:DejaVuSans;writing-mode:lr-tb;fill:#000000;fill-opacity:1;fill-rule:nonzero;stroke:none"
         id="text182"><tspan
           x="0"
           y="0"
           id="tspan184">S</tspan></text>
<text
         transform="matrix(0.85692349,0,0,-1,411.32204,599.05095)"
         style="font-variant:normal;font-weight:normal;font-size:24.95151711px;font-family:'DejaVu Sans';-inkscape-font-specification:DejaVuSans;writing-mode:lr-tb;fill:#000000;fill-opacity:1;fill-rule:nonzero;stroke:none"
         id="text186"><tspan
           x="0 15.819263 31.563671"
           y="0"
           sodipodi:role="line"
           id="tspan188">SEN</tspan></text>
<text
         transform="matrix(0.85692349,0,0,-1,180.26742,606.37502)"
         style="font-variant:normal;font-weight:normal;font-size:38.38695145px;font-family:'DejaVu Sans';-inkscape-font-specification:DejaVuSans;writing-mode:lr-tb;fill:#000000;fill-opacity:1;fill-rule:nonzero;stroke:none"
         id="text190"><tspan
           x="0"
           y="0"
           id="tspan192">S</tspan></text>
<text
         transform="matrix(0.85692349,0,0,-1,201.14783,598.69763)"
         style="font-variant:normal;font-weight:normal;font-size:24.95151711px;font-family:'DejaVu Sans';-inkscape-font-specification:DejaVuSans;writing-mode:lr-tb;fill:#000000;fill-opacity:1;fill-rule:nonzero;stroke:none"
         id="text194"><tspan
           x="0 19.212669 34.957077"
           y="0"
           sodipodi:role="line"
           id="tspan196">DEP</tspan></text>
<g
         id="g198"
         transform="matrix(0.646293,0,0,-1,0,1079.4369)"><path
           d="m 566.04,1045.203 -17.636,0 0,-145.598 17.636,0"
           style="fill:none;stroke:#000000;stroke-width:2.13265109;stroke-linecap:butt;stroke-linejoin:miter;stroke-miterlimit:4;stroke-dasharray:none;stroke-opacity:1"
           id="path200"
           inkscape:connector-curvature="0" /></g><g
         id="g202"
         transform="matrix(0.646293,0,0,-1,0,1079.4369)"><path
           d="m 741.313,1046.055 17.636,0 0,-145.598 -17.636,0"
           style="fill:none;stroke:#000000;stroke-width:2.13265109;stroke-linecap:butt;stroke-linejoin:miter;stroke-miterlimit:4;stroke-dasharray:none;stroke-opacity:1"
           id="path204"
           inkscape:connector-curvature="0" /></g><g
         id="g206"
         transform="matrix(0.667745,0,0,-1,0,1079.4369)" /><g
         id="g210"
         transform="matrix(0.667745,0,0,-1,0,1079.4369)"><path
           d="m 540.134,907.047 93.242,0 0,130.344 -93.242,0 0,-130.344 z"
           style="fill:#3737c8;stroke:none;stroke-width:1.59297001;stroke-linecap:butt;stroke-linejoin:miter;stroke-miterlimit:3.79999995;stroke-dasharray:none;stroke-opacity:1;fill-opacity:0.94117647"
           id="path212"
           inkscape:connector-curvature="0" /></g><g
         id="g214"
         transform="matrix(0.667745,0,0,-1,0,1079.4369)"><path
           d="m 541.269,972.191 90.996,0"
           style="fill:none;stroke:#000000;stroke-width:1.59297001;stroke-linecap:square;stroke-linejoin:miter;stroke-miterlimit:4;stroke-dasharray:none;stroke-opacity:1"
           id="path216"
           inkscape:connector-curvature="0" /></g><g
         id="g218"
         transform="matrix(0.667745,0,0,-1,0,1079.4369)"><path
           d="m 541.269,939.59 90.996,0"
           style="fill:none;stroke:#000000;stroke-width:1.59297001;stroke-linecap:square;stroke-linejoin:miter;stroke-miterlimit:4;stroke-dasharray:none;stroke-opacity:1"
           id="path220"
           inkscape:connector-curvature="0" /></g><g
         id="g222"
         transform="matrix(0.646293,0,0,-1,0,1079.4369)"><path
           d="m 590.585,907.855 0,128.735"
           style="fill:none;stroke:#000000;stroke-width:1.61919105;stroke-linecap:square;stroke-linejoin:miter;stroke-miterlimit:4;stroke-dasharray:none;stroke-opacity:1"
           id="path224"
           inkscape:connector-curvature="0" /></g><g
         id="g226"
         transform="matrix(0.646293,0,0,-1,0,1079.4369)"><path
           d="m 623.133,907.848 0,128.734"
           style="fill:none;stroke:#000000;stroke-width:1.61919105;stroke-linecap:square;stroke-linejoin:miter;stroke-miterlimit:4;stroke-dasharray:none;stroke-opacity:1"
           id="path228"
           inkscape:connector-curvature="0" /></g><g
         id="g230"
         transform="matrix(0.667745,0,0,-1,0,1079.4369)" /><g
         id="g234"
         transform="matrix(0.667745,0,0,-1,0,1079.4369)"><path
           d="m 633.534,907.004 93.248,0 0,130.344 -93.248,0 0,-130.344 z"
           style="fill:#3737c8;stroke:none;stroke-width:1.59297001;stroke-linecap:butt;stroke-linejoin:miter;stroke-miterlimit:3.79999995;stroke-dasharray:none;stroke-opacity:1;fill-opacity:0.94117647"
           id="path236"
           inkscape:connector-curvature="0" /></g><g
         id="g238"
         transform="matrix(0.667745,0,0,-1,0,1079.4369)"><path
           d="m 634.675,972.145 90.99,0"
           style="fill:none;stroke:#000000;stroke-width:1.59297001;stroke-linecap:square;stroke-linejoin:miter;stroke-miterlimit:4;stroke-dasharray:none;stroke-opacity:1"
           id="path240"
           inkscape:connector-curvature="0" /></g><g
         id="g242"
         transform="matrix(0.667745,0,0,-1,0,1079.4369)"><path
           d="m 634.675,939.543 90.99,0"
           style="fill:none;stroke:#000000;stroke-width:1.59297001;stroke-linecap:square;stroke-linejoin:miter;stroke-miterlimit:4;stroke-dasharray:none;stroke-opacity:1"
           id="path244"
           inkscape:connector-curvature="0" /></g><g
         id="g246"
         transform="matrix(0.646293,0,0,-1,0,1079.4369)"><path
           d="m 687.085,907.812 0,128.735"
           style="fill:#3737c8;stroke:#000000;stroke-width:1.61919105;stroke-linecap:square;stroke-linejoin:miter;stroke-miterlimit:4;stroke-dasharray:none;stroke-opacity:1;fill-opacity:0.94117647"
           id="path248"
           inkscape:connector-curvature="0" /></g><g
         id="g250"
         transform="matrix(0.646293,0,0,-1,0,1079.4369)"><path
           d="m 719.638,907.805 0,128.734"
           style="fill:none;stroke:#000000;stroke-width:1.61919105;stroke-linecap:square;stroke-linejoin:miter;stroke-miterlimit:4;stroke-dasharray:none;stroke-opacity:1"
           id="path252"
           inkscape:connector-curvature="0" /></g><g
         id="g254"
         transform="matrix(0.646293,0,0,-1,0,1079.4369)"><path
           d="m 241.727,1046.086 -17.637,0 0,-145.598 17.637,0"
           style="fill:none;stroke:#000000;stroke-width:2.13265109;stroke-linecap:butt;stroke-linejoin:miter;stroke-miterlimit:4;stroke-dasharray:none;stroke-opacity:1"
           id="path256"
           inkscape:connector-curvature="0" /></g><g
         id="g258"
         transform="matrix(0.646293,0,0,-1,0,1079.4369)"><path
           d="m 416.999,1046.941 17.637,0 0,-145.597 -17.637,0"
           style="fill:none;stroke:#000000;stroke-width:2.13265109;stroke-linecap:butt;stroke-linejoin:miter;stroke-miterlimit:4;stroke-dasharray:none;stroke-opacity:1"
           id="path260"
           inkscape:connector-curvature="0" /></g><g
         id="g262"
         transform="matrix(0.667745,0,0,-1,0,1079.4369)" /><g
         id="g266"
         transform="matrix(0.667745,0,0,-1,0,1079.4369)"><path
           d="m 226.24,907.934 93.242,0 0,130.344 -93.242,0 0,-130.344 z"
           style="fill:#668000;stroke:none;stroke-width:1.59297001;stroke-linecap:butt;stroke-linejoin:miter;stroke-miterlimit:3.79999995;stroke-dasharray:none;stroke-opacity:1;fill-opacity:0.94117647;opacity:0.97"
           id="path268"
           inkscape:connector-curvature="0" /></g><g
         id="g270"
         transform="matrix(0.667745,0,0,-1,0,1079.4369)"><path
           d="m 227.375,973.074 90.995,0"
           style="fill:none;stroke:#000000;stroke-width:1.59297001;stroke-linecap:square;stroke-linejoin:miter;stroke-miterlimit:4;stroke-dasharray:none;stroke-opacity:1"
           id="path272"
           inkscape:connector-curvature="0" /></g><g
         id="g274"
         transform="matrix(0.667745,0,0,-1,0,1079.4369)"><path
           d="m 227.375,940.473 90.995,0"
           style="fill:none;stroke:#000000;stroke-width:1.59297001;stroke-linecap:square;stroke-linejoin:miter;stroke-miterlimit:4;stroke-dasharray:none;stroke-opacity:1"
           id="path276"
           inkscape:connector-curvature="0" /></g><g
         id="g278"
         transform="matrix(0.646293,0,0,-1,0,1079.4369)"><path
           d="m 266.272,908.742 0,128.735"
           style="fill:none;stroke:#000000;stroke-width:1.61919105;stroke-linecap:square;stroke-linejoin:miter;stroke-miterlimit:4;stroke-dasharray:none;stroke-opacity:1"
           id="path280"
           inkscape:connector-curvature="0" /></g><g
         id="g282"
         transform="matrix(0.646293,0,0,-1,0,1079.4369)"><path
           d="m 298.825,908.734 0,128.735"
           style="fill:none;stroke:#000000;stroke-width:1.61919105;stroke-linecap:square;stroke-linejoin:miter;stroke-miterlimit:4;stroke-dasharray:none;stroke-opacity:1"
           id="path284"
           inkscape:connector-curvature="0" /></g><g
         id="g286"
         transform="matrix(0.667745,0,0,-1,0,1079.4369)" /><g
         id="g290"
         transform="matrix(0.667745,0,0,-1,0,1079.4369)"><path
           d="m 319.645,907.887 93.242,0 0,130.348 -93.242,0 0,-130.348 z"
           style="fill:#668000;stroke:none;stroke-width:1.59297001;stroke-linecap:butt;stroke-linejoin:miter;stroke-miterlimit:3.79999995;stroke-dasharray:none;stroke-opacity:1;fill-opacity:0.94117647;opacity:0.97"
           id="path292"
           inkscape:connector-curvature="0" /></g><g
         id="g294"
         transform="matrix(0.667745,0,0,-1,0,1079.4369)"><path
           d="m 320.78,973.031 90.996,0"
           style="fill:none;stroke:#000000;stroke-width:1.59297001;stroke-linecap:square;stroke-linejoin:miter;stroke-miterlimit:4;stroke-dasharray:none;stroke-opacity:1"
           id="path296"
           inkscape:connector-curvature="0" /></g><g
         id="g298"
         transform="matrix(0.667745,0,0,-1,0,1079.4369)"><path
           d="m 320.78,940.43 90.996,0"
           style="fill:none;stroke:#000000;stroke-width:1.59297001;stroke-linecap:square;stroke-linejoin:miter;stroke-miterlimit:4;stroke-dasharray:none;stroke-opacity:1"
           id="path300"
           inkscape:connector-curvature="0" /></g><g
         id="g302"
         transform="matrix(0.646293,0,0,-1,0,1079.4369)"><path
           d="m 362.778,908.695 0,128.739"
           style="fill:none;stroke:#000000;stroke-width:1.61919105;stroke-linecap:square;stroke-linejoin:miter;stroke-miterlimit:4;stroke-dasharray:none;stroke-opacity:1"
           id="path304"
           inkscape:connector-curvature="0" /></g><g
         id="g306"
         transform="matrix(0.646293,0,0,-1,0,1079.4369)"><path
           d="m 395.325,908.688 0,128.734"
           style="fill:none;stroke:#000000;stroke-width:1.61919105;stroke-linecap:square;stroke-linejoin:miter;stroke-miterlimit:4;stroke-dasharray:none;stroke-opacity:1"
           id="path308"
           inkscape:connector-curvature="0" /></g><text
         transform="matrix(0.85692349,0,0,-1,390.44162,193.40271)"
         style="font-variant:normal;font-weight:normal;font-size:38.38695145px;font-family:'DejaVu Sans';-inkscape-font-specification:DejaVuSans;writing-mode:lr-tb;fill:#000000;fill-opacity:1;fill-rule:nonzero;stroke:none"
         id="text310"><tspan
           x="0"
           y="0"
           id="tspan312">S</tspan></text>
<text
         transform="matrix(0.85692349,0,0,-1,411.32204,185.72532)"
         style="font-variant:normal;font-weight:normal;font-size:24.95151711px;font-family:'DejaVu Sans';-inkscape-font-specification:DejaVuSans;writing-mode:lr-tb;fill:#000000;fill-opacity:1;fill-rule:nonzero;stroke:none"
         id="text314"><tspan
           x="0 15.819263 31.563671"
           y="0"
           sodipodi:role="line"
           id="tspan316">SEN</tspan></text>
<text
         transform="matrix(0.85692349,0,0,-1,186.92304,193.40271)"
         style="font-variant:normal;font-weight:normal;font-size:38.38695145px;font-family:'DejaVu Sans';-inkscape-font-specification:DejaVuSans;writing-mode:lr-tb;fill:#000000;fill-opacity:1;fill-rule:nonzero;stroke:none"
         id="text318"><tspan
           x="0"
           y="0"
           id="tspan320">S</tspan></text>
<text
         transform="matrix(0.85692349,0,0,-1,207.80346,185.72532)"
         style="font-variant:normal;font-weight:normal;font-size:24.95151711px;font-family:'DejaVu Sans';-inkscape-font-specification:DejaVuSans;writing-mode:lr-tb;fill:#000000;fill-opacity:1;fill-rule:nonzero;stroke:none"
         id="text322"><tspan
           x="0 19.212669 34.957077"
           y="0"
           sodipodi:role="line"
           id="tspan324">DEP</tspan></text>
<text
         transform="matrix(1,0,0,-1,9.291542,332.8878)"
         style="font-variant:normal;font-weight:normal;font-size:32px;font-family:'DejaVu Sans';-inkscape-font-specification:DejaVuSans;writing-mode:lr-tb;fill:#000000;fill-opacity:1;fill-rule:nonzero;stroke:none"
         id="text326"><tspan
           x="0"
           y="0"
           id="tspan328">K</tspan></text>
<text
         transform="matrix(1,0,0,-1,30.291542,326.4878)"
         style="font-variant:normal;font-weight:normal;font-size:20.79999924px;font-family:'DejaVu Sans';-inkscape-font-specification:DejaVuSans;writing-mode:lr-tb;fill:#000000;fill-opacity:1;fill-rule:nonzero;stroke:none"
         id="text330"><tspan
           x="0 15.5584"
           y="0"
           sodipodi:role="line"
           id="tspan332">NN</tspan></text>
<text
         transform="matrix(1,0,0,-1,61.410292,332.8878)"
         style="font-variant:normal;font-weight:normal;font-size:32px;font-family:'DejaVu Sans';-inkscape-font-specification:DejaVuSans;writing-mode:lr-tb;fill:#000000;fill-opacity:1;fill-rule:nonzero;stroke:none"
         id="text334"><tspan
           x="0 12.48"
           y="0"
           sodipodi:role="line"
           id="tspan336">(S</tspan></text>
<text
         transform="matrix(1,0,0,-1,94.222792,326.4878)"
         style="font-variant:normal;font-weight:normal;font-size:20.79999924px;font-family:'DejaVu Sans';-inkscape-font-specification:DejaVuSans;writing-mode:lr-tb;fill:#000000;fill-opacity:1;fill-rule:nonzero;stroke:none"
         id="text338"><tspan
           x="0 16.016001 29.1408"
           y="0"
           sodipodi:role="line"
           id="tspan340">DEP</tspan></text>
<text
         transform="matrix(1,0,0,-1,135.94467,332.8878)"
         style="font-variant:normal;font-weight:normal;font-size:32px;font-family:'DejaVu Sans';-inkscape-font-specification:DejaVuSans;writing-mode:lr-tb;fill:#000000;fill-opacity:1;fill-rule:nonzero;stroke:none"
         id="text342"><tspan
           x="0 10.144 20.288 41.248001"
           y="0"
           sodipodi:role="line"
           id="tspan344">, K)</tspan></text>
<text
         transform="matrix(1,0,0,-1,205.79015,219.88453)"
         style="font-variant:normal;font-weight:normal;font-size:23px;font-family:'DejaVu Sans';-inkscape-font-specification:DejaVuSans;writing-mode:lr-tb;fill:#000000;fill-opacity:1;fill-rule:nonzero;stroke:none"
         id="text346"><tspan
           x="0"
           y="0"
           id="tspan348">F</tspan></text>
<text
         transform="matrix(1,0,0,-1,197.18566,708.98559)"
         style="font-variant:normal;font-weight:normal;font-size:32px;font-family:'DejaVu Sans';-inkscape-font-specification:DejaVuSans;writing-mode:lr-tb;fill:#000000;fill-opacity:1;fill-rule:nonzero;stroke:none"
         id="text350"><tspan
           x="0"
           y="0"
           id="tspan352">m</tspan><tspan
           x="214.5453"
           y="-3.3281281"
           id="tspan354">p</tspan><tspan
           x="-101.75469"
           y="192.48894"
           id="tspan356">n</tspan><tspan
           x="5.445312 215.01331"
           y="289.39734"
           sodipodi:role="line"
           id="tspan358">nn</tspan><tspan
           x="119.2255"
           y="191.21382"
           id="tspan360">n</tspan><tspan
           x="-101.75468"
           y="604.65656"
           id="tspan362">n</tspan><tspan
           x="5.445312 215.01331"
           y="700.98846"
           sodipodi:role="line"
           id="tspan364">nn</tspan></text>
<text
         transform="matrix(1,0,0,-1,308.49158,102.89437)"
         style="font-variant:normal;font-weight:normal;font-size:64px;font-family:'DejaVu Sans';-inkscape-font-specification:DejaVuSans;writing-mode:lr-tb;fill:#000000;fill-opacity:1;fill-rule:nonzero;stroke:none"
         id="text366"><tspan
           x="0"
           y="0"
           id="tspan368">.</tspan></text>
<g
         id="g370"
         transform="matrix(0.646293,0,0,-1,0,1079.4369)"><path
           d="m 959.921,1047.531 -17.637,0 0,-145.597 17.637,0"
           style="fill:none;stroke:#000000;stroke-width:2.13265109;stroke-linecap:butt;stroke-linejoin:miter;stroke-miterlimit:4;stroke-dasharray:none;stroke-opacity:1"
           id="path372"
           inkscape:connector-curvature="0" /></g><g
         id="g374"
         transform="matrix(0.646293,0,0,-1,0,1079.4369)"><path
           d="m 1135.193,1048.383 17.637,0 0,-145.598 -17.637,0"
           style="fill:none;stroke:#000000;stroke-width:2.13265109;stroke-linecap:butt;stroke-linejoin:miter;stroke-miterlimit:4;stroke-dasharray:none;stroke-opacity:1"
           id="path376"
           inkscape:connector-curvature="0" /></g><g
         id="g378"
         transform="matrix(0.667745,0,0,-1,0,1079.4369)" /><g
         id="g382"
         transform="matrix(0.667745,0,0,-1,0,1079.4369)"><path
           d="m 921.362,909.375 93.242,0 0,130.344 -93.242,0 0,-130.344 z"
           style="fill:#515f5b;stroke:none;stroke-width:1.59297001;stroke-linecap:butt;stroke-linejoin:miter;stroke-miterlimit:3.79999995;stroke-dasharray:none;stroke-opacity:0.24705882;fill-opacity:0.94117647"
           id="path384"
           inkscape:connector-curvature="0" /></g><g
         id="g386"
         transform="matrix(0.667745,0,0,-1,0,1079.4369)"><path
           d="m 922.497,974.52 90.995,0"
           style="fill:none;stroke:#000000;stroke-width:1.59297001;stroke-linecap:square;stroke-linejoin:miter;stroke-miterlimit:4;stroke-dasharray:none;stroke-opacity:1"
           id="path388"
           inkscape:connector-curvature="0" /></g><g
         id="g390"
         transform="matrix(0.667745,0,0,-1,0,1079.4369)"><path
           d="m 922.497,941.918 90.995,0"
           style="fill:none;stroke:#000000;stroke-width:1.59297001;stroke-linecap:square;stroke-linejoin:miter;stroke-miterlimit:4;stroke-dasharray:none;stroke-opacity:1"
           id="path392"
           inkscape:connector-curvature="0" /></g><g
         id="g394"
         transform="matrix(0.646293,0,0,-1,0,1079.4369)"><path
           d="m 984.466,910.184 0,128.734"
           style="fill:none;stroke:#000000;stroke-width:1.61919105;stroke-linecap:square;stroke-linejoin:miter;stroke-miterlimit:4;stroke-dasharray:none;stroke-opacity:1"
           id="path396"
           inkscape:connector-curvature="0" /></g><g
         id="g398"
         transform="matrix(0.646293,0,0,-1,0,1079.4369)"><path
           d="m 1017.019,910.176 0,128.734"
           style="fill:none;stroke:#000000;stroke-width:1.61919105;stroke-linecap:square;stroke-linejoin:miter;stroke-miterlimit:4;stroke-dasharray:none;stroke-opacity:1"
           id="path400"
           inkscape:connector-curvature="0" /></g><g
         id="g402"
         transform="matrix(0.667745,0,0,-1,0,1079.4369)" /><g
         id="g406"
         transform="matrix(0.667745,0,0,-1,0,1079.4369)"><path
           d="m 1014.767,909.332 93.242,0 0,130.344 -93.242,0 0,-130.344 z"
           style="fill:#515f5b;stroke:none;stroke-width:1.59297001;stroke-linecap:butt;stroke-linejoin:miter;stroke-miterlimit:3.79999995;stroke-dasharray:none;stroke-opacity:0.24705882;fill-opacity:0.94117647"
           id="path408"
           inkscape:connector-curvature="0" /></g><g
         id="g410"
         transform="matrix(0.667745,0,0,-1,0,1079.4369)"><path
           d="m 1015.902,974.473 90.996,0"
           style="fill:none;stroke:#000000;stroke-width:1.59297001;stroke-linecap:square;stroke-linejoin:miter;stroke-miterlimit:4;stroke-dasharray:none;stroke-opacity:1"
           id="path412"
           inkscape:connector-curvature="0" /></g><g
         id="g414"
         transform="matrix(0.667745,0,0,-1,0,1079.4369)"><path
           d="m 1015.902,941.871 90.996,0"
           style="fill:none;stroke:#000000;stroke-width:1.59297001;stroke-linecap:square;stroke-linejoin:miter;stroke-miterlimit:4;stroke-dasharray:none;stroke-opacity:1"
           id="path416"
           inkscape:connector-curvature="0" /></g><g
         id="g418"
         transform="matrix(0.646293,0,0,-1,0,1079.4369)"><path
           d="m 1080.972,910.141 0,128.734"
           style="fill:none;stroke:#000000;stroke-width:1.61919105;stroke-linecap:square;stroke-linejoin:miter;stroke-miterlimit:4;stroke-dasharray:none;stroke-opacity:1"
           id="path420"
           inkscape:connector-curvature="0" /></g><g
         id="g422"
         transform="matrix(0.646293,0,0,-1,0,1079.4369)"><path
           d="m 1113.519,910.133 0,128.734"
           style="fill:none;stroke:#000000;stroke-width:1.61919105;stroke-linecap:square;stroke-linejoin:miter;stroke-miterlimit:4;stroke-dasharray:none;stroke-opacity:1"
           id="path424"
           inkscape:connector-curvature="0" /></g><text
         transform="matrix(0.85692349,0,0,-1,614.39967,193.40271)"
         style="font-variant:normal;font-weight:normal;font-size:38.38695145px;font-family:'DejaVu Sans';-inkscape-font-specification:DejaVuSans;writing-mode:lr-tb;fill:#000000;fill-opacity:1;fill-rule:nonzero;stroke:none"
         id="text426"><tspan
           x="0"
           y="0"
           id="tspan428">S</tspan></text>
<text
         transform="matrix(0.85692349,0,0,-1,635.28008,185.72532)"
         style="font-variant:normal;font-weight:normal;font-size:24.95151711px;font-family:'DejaVu Sans';-inkscape-font-specification:DejaVuSans;writing-mode:lr-tb;fill:#000000;fill-opacity:1;fill-rule:nonzero;stroke:none"
         id="text430"><tspan
           x="0 19.212669 34.957077"
           y="0"
           sodipodi:role="line"
           id="tspan432">DEP</tspan></text>
<text
         transform="matrix(0.85692349,0,0,-1,678.12869,185.72532)"
         style="font-variant:normal;font-weight:normal;font-size:24.95151711px;font-family:'DejaVu Sans';-inkscape-font-specification:DejaVuSans;writing-mode:lr-tb;fill:#000000;fill-opacity:1;fill-rule:nonzero;stroke:none"
         id="text434"><tspan
           x="0"
           y="0"
           id="tspan436">→</tspan></text>
<text
         transform="matrix(0.85692349,0,0,-1,696.02504,185.72532)"
         style="font-variant:normal;font-weight:normal;font-size:24.95151711px;font-family:'DejaVu Sans';-inkscape-font-specification:DejaVuSans;writing-mode:lr-tb;fill:#000000;fill-opacity:1;fill-rule:nonzero;stroke:none"
         id="text438"><tspan
           x="0 15.819263 31.563671"
           y="0"
           sodipodi:role="line"
           id="tspan440">SEN</tspan></text>
<text
         transform="matrix(1,0,0,-1,666.98378,5.669222)"
         style="font-variant:normal;font-weight:normal;font-size:32px;font-family:'DejaVu Sans';-inkscape-font-specification:DejaVuSans;writing-mode:lr-tb;fill:#000000;fill-opacity:1;fill-rule:nonzero;stroke:none"
         id="text442"><tspan
           x="0"
           y="0"
           id="tspan444">n</tspan></text>
<g
         id="g446"
         transform="matrix(1,0,0,-1,0,1079.4369)"><path
           d="m 212.867,381.395 0,52"
           style="fill:none;stroke:#000000;stroke-width:2.50015807;stroke-linecap:butt;stroke-linejoin:miter;stroke-miterlimit:4;stroke-dasharray:none;stroke-opacity:1"
           id="path448"
           inkscape:connector-curvature="0" /></g><g
         id="g450"
         transform="matrix(0,1,1,0,0,1079.4369)"><path
           d="m -423.395,212.867 5,-5.004 -17.5,5.004 17.5,5 -5,-5 z"
           style="fill:#000000;fill-opacity:1;fill-rule:evenodd;stroke:#000000;stroke-width:1.25007904;stroke-linecap:butt;stroke-linejoin:miter;stroke-miterlimit:4;stroke-dasharray:none;stroke-opacity:1"
           id="path452"
           inkscape:connector-curvature="0" /></g><g
         id="g454"
         transform="matrix(1,0,0,-1,0,1079.4369)"><path
           d="m 422.465,381.395 0,52"
           style="fill:none;stroke:#000000;stroke-width:2.50015807;stroke-linecap:butt;stroke-linejoin:miter;stroke-miterlimit:4;stroke-dasharray:none;stroke-opacity:1"
           id="path456"
           inkscape:connector-curvature="0" /></g><g
         id="g458"
         transform="matrix(0,1,1,0,0,1079.4369)"><path
           d="m -423.395,422.465 5,-5 -17.5,5 17.5,5 -5,-5 z"
           style="fill:#000000;fill-opacity:1;fill-rule:evenodd;stroke:#000000;stroke-width:1.25007904;stroke-linecap:butt;stroke-linejoin:miter;stroke-miterlimit:4;stroke-dasharray:none;stroke-opacity:1"
           id="path460"
           inkscape:connector-curvature="0" /></g><g
         id="g462"
         transform="matrix(1,0,0,-1,0,1079.4369)"><path
           d="m 212.867,674.371 0,133.754"
           style="fill:none;stroke:#000000;stroke-width:4.00977421;stroke-linecap:butt;stroke-linejoin:miter;stroke-miterlimit:4;stroke-dasharray:none;stroke-opacity:1"
           id="path464"
           inkscape:connector-curvature="0" /></g><g
         id="g466"
         transform="matrix(0,1,1,0,0,1079.4369)"><path
           d="m -792.086,212.867 8.02,-8.019 -28.067,8.019 28.067,8.02 -8.02,-8.02 z"
           style="fill:#000000;fill-opacity:1;fill-rule:evenodd;stroke:#000000;stroke-width:2.0048871;stroke-linecap:butt;stroke-linejoin:miter;stroke-miterlimit:4;stroke-dasharray:none;stroke-opacity:1"
           id="path468"
           inkscape:connector-curvature="0" /></g><g
         id="g470"
         transform="matrix(1,0,0,-1,0,1079.4369)"><path
           d="m 422.465,674.371 0,133.754"
           style="fill:none;stroke:#000000;stroke-width:4.00977421;stroke-linecap:butt;stroke-linejoin:miter;stroke-miterlimit:4;stroke-dasharray:none;stroke-opacity:1"
           id="path472"
           inkscape:connector-curvature="0" /></g><g
         id="g474"
         transform="matrix(0,1,1,0,0,1079.4369)"><path
           d="m -792.086,422.465 8.02,-8.02 -28.067,8.02 28.067,8.019 -8.02,-8.019 z"
           style="fill:#000000;fill-opacity:1;fill-rule:evenodd;stroke:#000000;stroke-width:2.0048871;stroke-linecap:butt;stroke-linejoin:miter;stroke-miterlimit:4;stroke-dasharray:none;stroke-opacity:1"
           id="path476"
           inkscape:connector-curvature="0" /></g></g><path
       d="m 212.84924,725.75795 0,-128.73501"
       style="fill:none;stroke:#000000;stroke-width:1.30170572;stroke-linecap:square;stroke-linejoin:miter;stroke-miterlimit:4;stroke-dasharray:none;stroke-opacity:1"
       id="path156-1"
       inkscape:connector-curvature="0" /><path
       d="m 423.46105,726.71681 0,-128.73401"
       style="fill:none;stroke:#000000;stroke-width:1.30170572;stroke-linecap:square;stroke-linejoin:miter;stroke-miterlimit:4;stroke-dasharray:none;stroke-opacity:1"
       id="path48-9"
       inkscape:connector-curvature="0" /><path
       d="m 151.83096,213.04387 122.91678,0"
       style="fill:none;stroke:#000000;stroke-width:1.85141778;stroke-linecap:square;stroke-linejoin:miter;stroke-miterlimit:4;stroke-dasharray:none;stroke-opacity:1"
       id="path272-1"
       inkscape:connector-curvature="0" /><path
       d="m 213.89749,314.49092 0,-128.73901"
       style="fill:none;stroke:#000000;stroke-width:1.30170572;stroke-linecap:square;stroke-linejoin:miter;stroke-miterlimit:4;stroke-dasharray:none;stroke-opacity:1"
       id="path304-8"
       inkscape:connector-curvature="0" /><path
       d="m 422.91239,315.43972 0,-128.73501"
       style="fill:#3737c8;fill-opacity:0.94117647;stroke:#000000;stroke-width:1.30170572;stroke-linecap:square;stroke-linejoin:miter;stroke-miterlimit:4;stroke-dasharray:none;stroke-opacity:1"
       id="path248-6"
       inkscape:connector-curvature="0" /><path
       d="m 361.88072,213.05857 122.13179,0"
       style="fill:none;stroke:#000000;stroke-width:1.8454864;stroke-linecap:square;stroke-linejoin:miter;stroke-miterlimit:4;stroke-dasharray:none;stroke-opacity:1"
       id="path216-1"
       inkscape:connector-curvature="0" /><path
       d="m 615.98108,212.08114 60.76145,0"
       style="fill:none;stroke:#000000;stroke-width:1.30170608;stroke-linecap:square;stroke-linejoin:miter;stroke-miterlimit:4;stroke-dasharray:none;stroke-opacity:1"
       id="path388-8"
       inkscape:connector-curvature="0" /><path
       d="m 678.3518,212.12814 60.76213,0"
       style="fill:none;stroke:#000000;stroke-width:1.30170608;stroke-linecap:square;stroke-linejoin:miter;stroke-miterlimit:4;stroke-dasharray:none;stroke-opacity:1"
       id="path412-3"
       inkscape:connector-curvature="0" /><path
       d="m 677.57095,313.26544 0,-128.73401"
       style="fill:none;stroke:#000000;stroke-width:1.30170572;stroke-linecap:square;stroke-linejoin:miter;stroke-miterlimit:4;stroke-dasharray:none;stroke-opacity:1"
       id="path400-1"
       inkscape:connector-curvature="0" /></g></svg>