<?xml version="1.0" encoding="UTF-8" standalone="no"?>
<svg
   xmlns:dc="http://purl.org/dc/elements/1.1/"
   xmlns:cc="http://creativecommons.org/ns#"
   xmlns:rdf="http://www.w3.org/1999/02/22-rdf-syntax-ns#"
   xmlns:svg="http://www.w3.org/2000/svg"
   xmlns="http://www.w3.org/2000/svg"
   xmlns:xlink="http://www.w3.org/1999/xlink"
   xmlns:sodipodi="http://sodipodi.sourceforge.net/DTD/sodipodi-0.dtd"
   xmlns:inkscape="http://www.inkscape.org/namespaces/inkscape"
   width="623.34247"
   height="292.32489"
   id="svg2"
   version="1.1"
   inkscape:version="0.91 r"
   sodipodi:docname="hypergraph_copies.svg">
  <metadata
     id="metadata175">
    <rdf:RDF>
      <cc:Work
         rdf:about="">
        <dc:format>image/svg+xml</dc:format>
        <dc:type
           rdf:resource="http://purl.org/dc/dcmitype/StillImage" />
        <dc:title></dc:title>
      </cc:Work>
    </rdf:RDF>
  </metadata>
  <defs
     id="defs173" />
  <sodipodi:namedview
     pagecolor="#ffffff"
     bordercolor="#666666"
     borderopacity="1"
     objecttolerance="10"
     gridtolerance="10"
     guidetolerance="10"
     inkscape:pageopacity="0"
     inkscape:pageshadow="2"
     inkscape:window-width="1920"
     inkscape:window-height="1026"
     id="namedview171"
     showgrid="false"
     inkscape:zoom="1.006831"
     inkscape:cx="327.67549"
     inkscape:cy="216.07143"
     inkscape:window-x="1680"
     inkscape:window-y="25"
     inkscape:window-maximized="1"
     inkscape:current-layer="g4"
     fit-margin-top="0"
     fit-margin-left="0"
     fit-margin-right="0"
     fit-margin-bottom="0" />
  <g
     transform="translate(-121.39213,-508.32139)"
     id="g4"
     inkscape:transform-center-x="47.674336"
     inkscape:transform-center-y="8.9389381">
    <path
       d="m 260.42608,603.28617 c 33.87241,-48.93325 81.85191,-73.59668 107.17957,-55.10142 25.3239,18.50071 18.39384,73.16155 -15.47856,122.09481 -33.87241,48.93327 -81.85191,73.59669 -107.17958,55.10144 -25.31808,-18.49646 -18.38904,-73.16216 15.48337,-122.09542 z"
       id="path6"
       style="fill:#ff6600;fill-opacity:0.24705882;stroke:none;stroke-width:2"
       inkscape:connector-curvature="0" />
    <path
       d="m 511.36315,508.38384 c 128.11617,-1.88233 232.59828,39.01718 233.36719,91.35153 0.7689,52.33435 -102.46655,96.28569 -230.58273,98.16799 -128.11617,1.88233 -232.59828,-39.01718 -233.36719,-91.35153 -0.7689,-52.33435 102.46655,-96.28569 230.58273,-98.16799 z"
       id="path8"
       style="fill:#3737c8;fill-opacity:0.24705882;stroke:none;stroke-width:2"
       inkscape:connector-curvature="0" />
    <path
       d="m 294.7483,654.81027 c -0.69564,-61.87986 22.96304,-113.19312 52.84301,-114.6202 29.87995,-1.42707 54.66632,47.57248 55.36195,109.45234 0.69564,61.87984 -22.96303,113.19312 -52.843,114.62018 -29.87996,1.42706 -54.66632,-47.57247 -55.36196,-109.45232 z"
       id="path10"
       style="fill:#668000;fill-opacity:0.24705882;stroke:none;stroke-width:2;stroke-opacity:0.24705882"
       inkscape:connector-curvature="0" />
    <use
       xlink:href="#a"
       transform="translate(119.91262,536.56281)"
       id="use14"
       x="0"
       y="0"
       width="100%"
       height="100%" />
    <use
       xlink:href="#b"
       transform="translate(313.76423,800.31295)"
       id="use18"
       x="0"
       y="0"
       width="100%"
       height="100%" />
    <use
       xlink:href="#c"
       transform="translate(571.58998,728.32109)"
       id="use22"
       x="0"
       y="0"
       width="100%"
       height="100%" />
    <path
       style="stroke:#000000;stroke-width:1.28265607"
       d="m 485.42386,664.15753 c 0,4.12216 -2.86084,7.44564 -6.38581,7.44564 -3.52497,0 -6.38581,-3.32348 -6.38581,-7.4392 0,-4.10927 2.86084,-7.4392 6.38581,-7.4392 3.52497,0 6.38581,3.32993 6.38581,7.4392 z"
       id="path4307"
       inkscape:connector-curvature="0" />
    <defs
       id="defs54">
      <path
         d="m 212,-179 c -10,-28 -35,-45 -73,-45 -59,0 -87,40 -87,99 0,60 29,101 89,101 43,0 62,-24 78,-52 l 27,14 C 228,-24 195,4 139,4 59,4 22,-46 18,-125 c -6,-104 99,-153 187,-111 19,9 31,26 39,46"
         id="k"
         inkscape:connector-curvature="0" />
      <path
         d="m 140,-251 c 81,0 123,46 123,126 C 263,-46 219,4 140,4 59,4 17,-45 17,-125 c 0,-80 42,-126 123,-126 z m 0,227 c 63,0 89,-41 89,-101 0,-60 -29,-99 -89,-99 -61,0 -89,39 -89,99 0,60 28,100 89,101"
         id="l"
         inkscape:connector-curvature="0" />
      <path
         d="M 190,0 58,-211 59,0 30,0 l 0,-248 39,0 133,213 -2,-213 31,0 0,248 -41,0"
         id="m"
         inkscape:connector-curvature="0" />
      <path
         d="m 185,-189 c -5,-48 -123,-54 -124,2 14,75 158,14 163,119 C 227,10 103,19 49,-13 32,-23 21,-39 16,-59 l 33,-7 c 5,56 141,63 141,-1 0,-78 -155,-14 -162,-118 -5,-82 145,-84 179,-34 5,7 8,16 11,25"
         id="n"
         inkscape:connector-curvature="0" />
      <path
         d="m 127,-220 0,220 -34,0 0,-220 -85,0 0,-28 204,0 0,28 -85,0"
         id="o"
         inkscape:connector-curvature="0" />
      <path
         d="m 33,0 0,-248 34,0 0,248 -34,0"
         id="p"
         inkscape:connector-curvature="0" />
      <path
         d="M 232,-93 C 231,-28 192,4 128,4 67,4 28,-28 28,-90 l 0,-158 33,0 c 8,89 -33,224 67,224 102,0 64,-133 71,-224 l 33,0 0,155"
         id="q"
         inkscape:connector-curvature="0" />
      <path
         d="m 30,0 0,-248 187,0 0,28 -154,0 0,79 144,0 0,27 -144,0 0,87 162,0 0,27 -195,0"
         id="r"
         inkscape:connector-curvature="0" />
      <g
         id="a">
        <use
           transform="scale(0.08333333,0.08333333)"
           xlink:href="#k"
           id="use65"
           x="0"
           y="0"
           width="100%"
           height="100%" />
        <use
           transform="matrix(0.08333333,0,0,0.08333333,21.583333,0)"
           xlink:href="#l"
           id="use67"
           x="0"
           y="0"
           width="100%"
           height="100%" />
        <use
           transform="matrix(0.08333333,0,0,0.08333333,44.916667,0)"
           xlink:href="#m"
           id="use69"
           x="0"
           y="0"
           width="100%"
           height="100%" />
        <use
           transform="matrix(0.08333333,0,0,0.08333333,66.5,0)"
           xlink:href="#n"
           id="use71"
           x="0"
           y="0"
           width="100%"
           height="100%" />
        <use
           transform="matrix(0.08333333,0,0,0.08333333,86.5,0)"
           xlink:href="#o"
           id="use73"
           x="0"
           y="0"
           width="100%"
           height="100%" />
        <use
           transform="matrix(0.08333333,0,0,0.08333333,104.75,0)"
           xlink:href="#p"
           id="use75"
           x="0"
           y="0"
           width="100%"
           height="100%" />
        <use
           transform="matrix(0.08333333,0,0,0.08333333,113.08333,0)"
           xlink:href="#o"
           id="use77"
           x="0"
           y="0"
           width="100%"
           height="100%" />
        <use
           transform="matrix(0.08333333,0,0,0.08333333,131.33333,0)"
           xlink:href="#q"
           id="use79"
           x="0"
           y="0"
           width="100%"
           height="100%" />
        <use
           transform="matrix(0.08333333,0,0,0.08333333,152.91667,0)"
           xlink:href="#r"
           id="use81"
           x="0"
           y="0"
           width="100%"
           height="100%" />
        <use
           transform="matrix(0.08333333,0,0,0.08333333,172.91667,0)"
           xlink:href="#m"
           id="use83"
           x="0"
           y="0"
           width="100%"
           height="100%" />
        <use
           transform="matrix(0.08333333,0,0,0.08333333,194.5,0)"
           xlink:href="#o"
           id="use85"
           x="0"
           y="0"
           width="100%"
           height="100%" />
      </g>
      <path
         d="m 30,-248 c 118,-7 216,8 213,122 C 240,-48 200,0 122,0 l -92,0 0,-248 z m 33,221 c 89,8 146,-16 146,-99 0,-83 -60,-101 -146,-95 l 0,194"
         id="s"
         inkscape:connector-curvature="0" />
      <path
         d="m 30,-248 c 87,1 191,-15 191,75 0,78 -77,80 -158,76 l 0,97 -33,0 0,-248 z m 33,125 c 57,0 124,11 124,-50 0,-59 -68,-47 -124,-48 l 0,98"
         id="t"
         inkscape:connector-curvature="0" />
      <path
         d="m 137,-103 0,103 -34,0 0,-103 -95,-145 37,0 75,118 75,-118 37,0"
         id="u"
         inkscape:connector-curvature="0" />
      <g
         id="b">
        <use
           transform="scale(0.08333333,0.08333333)"
           xlink:href="#s"
           id="use91"
           x="0"
           y="0"
           width="100%"
           height="100%" />
        <use
           transform="matrix(0.08333333,0,0,0.08333333,21.583333,0)"
           xlink:href="#r"
           id="use93"
           x="0"
           y="0"
           width="100%"
           height="100%" />
        <use
           transform="matrix(0.08333333,0,0,0.08333333,41.583333,0)"
           xlink:href="#t"
           id="use95"
           x="0"
           y="0"
           width="100%"
           height="100%" />
        <use
           transform="matrix(0.08333333,0,0,0.08333333,61.583333,0)"
           xlink:href="#r"
           id="use97"
           x="0"
           y="0"
           width="100%"
           height="100%" />
        <use
           transform="matrix(0.08333333,0,0,0.08333333,81.583333,0)"
           xlink:href="#m"
           id="use99"
           x="0"
           y="0"
           width="100%"
           height="100%" />
        <use
           transform="matrix(0.08333333,0,0,0.08333333,103.16667,0)"
           xlink:href="#s"
           id="use101"
           x="0"
           y="0"
           width="100%"
           height="100%" />
        <use
           transform="matrix(0.08333333,0,0,0.08333333,124.75,0)"
           xlink:href="#r"
           id="use103"
           x="0"
           y="0"
           width="100%"
           height="100%" />
        <use
           transform="matrix(0.08333333,0,0,0.08333333,144.75,0)"
           xlink:href="#m"
           id="use105"
           x="0"
           y="0"
           width="100%"
           height="100%" />
        <use
           transform="matrix(0.08333333,0,0,0.08333333,166.33333,0)"
           xlink:href="#k"
           id="use107"
           x="0"
           y="0"
           width="100%"
           height="100%" />
        <use
           transform="matrix(0.08333333,0,0,0.08333333,187.91667,0)"
           xlink:href="#u"
           id="use109"
           x="0"
           y="0"
           width="100%"
           height="100%" />
      </g>
      <g
         id="c">
        <use
           transform="scale(0.08333333,0.08333333)"
           xlink:href="#n"
           id="use112"
           x="0"
           y="0"
           width="100%"
           height="100%" />
        <use
           transform="matrix(0.08333333,0,0,0.08333333,20,0)"
           xlink:href="#r"
           id="use114"
           x="0"
           y="0"
           width="100%"
           height="100%" />
        <use
           transform="matrix(0.08333333,0,0,0.08333333,40,0)"
           xlink:href="#m"
           id="use116"
           x="0"
           y="0"
           width="100%"
           height="100%" />
        <use
           transform="matrix(0.08333333,0,0,0.08333333,61.583333,0)"
           xlink:href="#o"
           id="use118"
           x="0"
           y="0"
           width="100%"
           height="100%" />
        <use
           transform="matrix(0.08333333,0,0,0.08333333,79.833333,0)"
           xlink:href="#r"
           id="use120"
           x="0"
           y="0"
           width="100%"
           height="100%" />
        <use
           transform="matrix(0.08333333,0,0,0.08333333,99.833333,0)"
           xlink:href="#m"
           id="use122"
           x="0"
           y="0"
           width="100%"
           height="100%" />
        <use
           transform="matrix(0.08333333,0,0,0.08333333,121.41667,0)"
           xlink:href="#k"
           id="use124"
           x="0"
           y="0"
           width="100%"
           height="100%" />
        <use
           transform="matrix(0.08333333,0,0,0.08333333,143,0)"
           xlink:href="#r"
           id="use126"
           x="0"
           y="0"
           width="100%"
           height="100%" />
      </g>
      <path
         d="M 206,0 170,0 130,-164 89,0 53,0 -1,-190 l 32,0 39,164 43,-164 34,0 41,164 42,-164 31,0"
         id="v"
         inkscape:connector-curvature="0" />
      <path
         d="m 27,0 0,-27 64,0 0,-190 -56,39 0,-29 58,-41 29,0 0,221 61,0 0,27 -156,0"
         id="w"
         inkscape:connector-curvature="0" />
      <g
         id="d">
        <use
           transform="scale(0.0787037,0.0787037)"
           xlink:href="#v"
           id="use131"
           x="0"
           y="0"
           width="100%"
           height="100%" />
        <use
           transform="matrix(0.0787037,0,0,0.0787037,20.384259,0)"
           xlink:href="#w"
           id="use133"
           x="0"
           y="0"
           width="100%"
           height="100%" />
      </g>
      <path
         d="m 101,-251 c 82,-7 93,87 43,132 l -62,55 c -11,11 -23,22 -29,37 l 129,0 0,27 -164,0 c 2,-99 128,-94 128,-182 0,-28 -16,-43 -45,-43 -29,0 -46,15 -49,41 l -32,-3 c 6,-41 34,-60 81,-64"
         id="x"
         inkscape:connector-curvature="0" />
      <g
         id="e">
        <use
           transform="scale(0.0787037,0.0787037)"
           xlink:href="#v"
           id="use137"
           x="0"
           y="0"
           width="100%"
           height="100%" />
        <use
           transform="matrix(0.0787037,0,0,0.0787037,20.384259,0)"
           xlink:href="#x"
           id="use139"
           x="0"
           y="0"
           width="100%"
           height="100%" />
      </g>
      <path
         d="m 126,-127 c 33,6 58,20 58,59 0,88 -139,92 -164,29 -3,-8 -5,-16 -6,-25 l 32,-3 c 6,27 21,44 54,44 32,0 52,-15 52,-46 0,-38 -36,-46 -79,-43 l 0,-28 c 39,1 72,-4 72,-42 0,-27 -17,-43 -46,-43 -28,0 -47,15 -49,41 l -32,-3 c 6,-42 35,-63 81,-64 48,-1 79,21 79,65 0,36 -21,52 -52,59"
         id="y"
         inkscape:connector-curvature="0" />
      <g
         id="f">
        <use
           transform="scale(0.0787037,0.0787037)"
           xlink:href="#v"
           id="use143"
           x="0"
           y="0"
           width="100%"
           height="100%" />
        <use
           transform="matrix(0.0787037,0,0,0.0787037,20.384259,0)"
           xlink:href="#y"
           id="use145"
           x="0"
           y="0"
           width="100%"
           height="100%" />
      </g>
      <path
         d="m 155,-56 0,56 -30,0 0,-56 -117,0 0,-25 114,-167 33,0 0,167 35,0 0,25 -35,0 z m -30,-156 c -27,46 -58,90 -88,131 l 88,0 0,-131"
         id="z"
         inkscape:connector-curvature="0" />
      <g
         id="g">
        <use
           transform="scale(0.0787037,0.0787037)"
           xlink:href="#v"
           id="use149"
           x="0"
           y="0"
           width="100%"
           height="100%" />
        <use
           transform="matrix(0.0787037,0,0,0.0787037,20.384259,0)"
           xlink:href="#z"
           id="use151"
           x="0"
           y="0"
           width="100%"
           height="100%" />
      </g>
      <path
         d="m 54,-142 c 48,-35 137,-8 131,61 C 196,18 31,33 14,-55 l 32,-4 c 7,23 22,37 52,37 35,-1 51,-22 54,-58 4,-55 -73,-65 -99,-34 l -31,0 8,-134 141,0 0,27 -112,0"
         id="A"
         inkscape:connector-curvature="0" />
      <g
         id="h">
        <use
           transform="scale(0.0787037,0.0787037)"
           xlink:href="#v"
           id="use155"
           x="0"
           y="0"
           width="100%"
           height="100%" />
        <use
           transform="matrix(0.0787037,0,0,0.0787037,20.384259,0)"
           xlink:href="#A"
           id="use157"
           x="0"
           y="0"
           width="100%"
           height="100%" />
      </g>
      <path
         d="m 64,0 c 3,-98 48,-159 88,-221 l -134,0 0,-27 164,0 0,26 C 143,-157 98,-101 97,0 L 64,0"
         id="B"
         inkscape:connector-curvature="0" />
      <g
         id="i">
        <use
           transform="scale(0.0787037,0.0787037)"
           xlink:href="#v"
           id="use161"
           x="0"
           y="0"
           width="100%"
           height="100%" />
        <use
           transform="matrix(0.0787037,0,0,0.0787037,20.384259,0)"
           xlink:href="#B"
           id="use163"
           x="0"
           y="0"
           width="100%"
           height="100%" />
      </g>
      <path
         d="m 134,-131 c 28,9 52,24 51,62 -1,50 -34,73 -85,73 -51,0 -83,-23 -84,-73 0,-36 21,-54 49,-61 -75,-25 -45,-126 34,-121 46,3 78,18 79,63 0,33 -17,51 -44,57 z m -34,-11 c 31,1 46,-15 46,-44 0,-28 -17,-43 -47,-42 -29,0 -46,13 -45,42 1,28 16,44 46,44 z m 1,122 c 35,0 51,-18 51,-52 0,-30 -18,-46 -53,-46 -33,0 -51,17 -51,47 0,34 19,51 53,51"
         id="C"
         inkscape:connector-curvature="0" />
      <g
         id="j">
        <use
           transform="scale(0.0787037,0.0787037)"
           xlink:href="#v"
           id="use167"
           x="0"
           y="0"
           width="100%"
           height="100%" />
        <use
           transform="matrix(0.0787037,0,0,0.0787037,20.384259,0)"
           xlink:href="#C"
           id="use169"
           x="0"
           y="0"
           width="100%"
           height="100%" />
      </g>
    </defs>
    <text
       xml:space="preserve"
       style="font-style:normal;font-weight:normal;font-size:36.25394821px;line-height:125%;font-family:Sans;letter-spacing:0px;word-spacing:0px;fill:#000000;fill-opacity:1;stroke:none;stroke-width:1px;stroke-linecap:butt;stroke-linejoin:miter;stroke-opacity:1"
       x="302.86908"
       y="613.17682"
       id="text4357"
       sodipodi:linespacing="125%"
       transform="scale(0.99376817,1.0062709)"><tspan
         sodipodi:role="line"
         id="tspan4359"
         x="302.86908"
         y="613.17682"
         style="font-style:italic;font-variant:normal;font-weight:normal;font-stretch:normal;font-size:31.72220612px;line-height:125%;font-family:Sans;-inkscape-font-specification:'Sans, Italic';text-align:start;writing-mode:lr-tb;text-anchor:start;fill:#000000">copies</tspan></text>
    <text
       xml:space="preserve"
       style="font-style:normal;font-weight:normal;font-size:35.07458878px;line-height:125%;font-family:Sans;letter-spacing:0px;word-spacing:0px;fill:#ff0000;fill-opacity:1;stroke:none;stroke-width:1px;stroke-linecap:butt;stroke-linejoin:miter;stroke-opacity:1"
       x="237.14406"
       y="684.03827"
       id="text4361"
       sodipodi:linespacing="125%"
       transform="scale(0.98183449,1.0185016)"><tspan
         sodipodi:role="line"
         id="tspan4363"
         x="237.14406"
         y="684.03827"
         style="font-style:normal;font-variant:normal;font-weight:normal;font-stretch:normal;font-size:25px;line-height:125%;font-family:Sans;-inkscape-font-specification:'Sans, Normal';text-align:start;writing-mode:lr-tb;text-anchor:start;fill:#ff0000">NP<tspan
   style="font-style:normal;font-variant:normal;font-weight:normal;font-stretch:normal;font-size:25px;line-height:125%;font-family:Sans;-inkscape-font-specification:'Sans, Normal';text-align:start;writing-mode:lr-tb;baseline-shift:sub;text-anchor:start;fill:#ff0000"
   id="tspan4365">1</tspan></tspan></text>
    <text
       xml:space="preserve"
       style="font-style:normal;font-variant:normal;font-weight:normal;font-stretch:normal;font-size:27.5px;line-height:125%;font-family:Sans;-inkscape-font-specification:'Sans, Normal';text-align:start;letter-spacing:0px;word-spacing:0px;writing-mode:lr-tb;text-anchor:start;fill:#000000;fill-opacity:1;stroke:none;stroke-width:1px;stroke-linecap:butt;stroke-linejoin:miter;stroke-opacity:1"
       x="420.00262"
       y="545.58685"
       id="text4357-7"
       sodipodi:linespacing="125%"><tspan
         sodipodi:role="line"
         id="tspan4359-8"
         x="420.00262"
         y="545.58685"
         style="font-style:normal;font-variant:normal;font-weight:normal;font-stretch:normal;font-size:27.5px;line-height:125%;font-family:Sans;-inkscape-font-specification:'Sans, Normal';text-align:start;writing-mode:lr-tb;text-anchor:start;fill:#000000">report</tspan></text>
    <text
       xml:space="preserve"
       style="font-style:normal;font-variant:normal;font-weight:normal;font-stretch:normal;font-size:27.5px;line-height:125%;font-family:Sans;-inkscape-font-specification:'Sans, Normal';text-align:start;letter-spacing:0px;word-spacing:0px;writing-mode:lr-tb;text-anchor:start;fill:#000000;fill-opacity:1;stroke:none;stroke-width:1px;stroke-linecap:butt;stroke-linejoin:miter;stroke-opacity:1"
       x="524.77325"
       y="569.5423"
       id="text4357-7-0"
       sodipodi:linespacing="125%"><tspan
         sodipodi:role="line"
         id="tspan4359-8-2"
         x="524.77325"
         y="569.5423"
         style="font-style:normal;font-variant:normal;font-weight:normal;font-stretch:normal;font-size:27.5px;line-height:125%;font-family:Sans;-inkscape-font-specification:'Sans, Normal';text-align:start;writing-mode:lr-tb;text-anchor:start;fill:#000000">minutes</tspan></text>
    <text
       xml:space="preserve"
       style="font-style:normal;font-variant:normal;font-weight:normal;font-stretch:normal;font-size:27.5px;line-height:125%;font-family:Sans;-inkscape-font-specification:'Sans, Normal';text-align:start;letter-spacing:0px;word-spacing:0px;writing-mode:lr-tb;text-anchor:start;fill:#000000;fill-opacity:1;stroke:none;stroke-width:1px;stroke-linecap:butt;stroke-linejoin:miter;stroke-opacity:1"
       x="437.37018"
       y="648.00641"
       id="text4357-7-7"
       sodipodi:linespacing="125%"><tspan
         sodipodi:role="line"
         id="tspan4359-8-6"
         x="437.37018"
         y="648.00641"
         style="font-style:normal;font-variant:normal;font-weight:normal;font-stretch:normal;font-size:27.5px;line-height:125%;font-family:Sans;-inkscape-font-specification:'Sans, Normal';text-align:start;writing-mode:lr-tb;text-anchor:start;fill:#000000">meetings</tspan><tspan
         sodipodi:role="line"
         x="437.37018"
         y="682.38141"
         style="font-style:normal;font-variant:normal;font-weight:normal;font-stretch:normal;font-size:27.5px;line-height:125%;font-family:Sans;-inkscape-font-specification:'Sans, Normal';text-align:start;writing-mode:lr-tb;text-anchor:start;fill:#000000"
         id="tspan4415" /></text>
    <text
       xml:space="preserve"
       style="font-style:normal;font-weight:normal;font-size:35.07458878px;line-height:125%;font-family:Sans;letter-spacing:0px;word-spacing:0px;fill:#ff0000;fill-opacity:1;stroke:none;stroke-width:1px;stroke-linecap:butt;stroke-linejoin:miter;stroke-opacity:1"
       x="296.64108"
       y="733.69391"
       id="text4361-3"
       sodipodi:linespacing="125%"
       transform="scale(0.98183449,1.0185016)"><tspan
         sodipodi:role="line"
         x="296.64108"
         y="733.69391"
         style="font-style:normal;font-variant:normal;font-weight:normal;font-stretch:normal;font-size:25px;line-height:125%;font-family:Sans;-inkscape-font-specification:'Sans, Normal';text-align:start;writing-mode:lr-tb;text-anchor:start;fill:#ff0000"
         id="tspan4493">dobj:contains</tspan></text>
    <path
       style="stroke:#000000;stroke-width:1.28265607"
       d="m 577.36251,585.58545 c 0,4.12216 -2.86084,7.44564 -6.38581,7.44564 -3.52497,0 -6.38581,-3.32348 -6.38581,-7.4392 0,-4.10927 2.86084,-7.4392 6.38581,-7.4392 3.52497,0 6.38581,3.32993 6.38581,7.4392 z"
       id="path4307-7"
       inkscape:connector-curvature="0" />
    <path
       style="stroke:#000000;stroke-width:1.28265607"
       d="m 461.15631,567.70758 c 0,4.12216 -2.86084,7.44564 -6.38581,7.44564 -3.52497,0 -6.38581,-3.32348 -6.38581,-7.4392 0,-4.10927 2.86084,-7.4392 6.38581,-7.4392 3.52497,0 6.38581,3.32993 6.38581,7.4392 z"
       id="path4307-3"
       inkscape:connector-curvature="0" />
    <path
       style="stroke:#000000;stroke-width:1.28265607"
       d="m 351.90263,581.61259 c 0,4.12216 -2.86084,7.44564 -6.38581,7.44564 -3.52497,0 -6.38581,-3.32348 -6.38581,-7.4392 0,-4.10927 2.86084,-7.4392 6.38581,-7.4392 3.52497,0 6.38581,3.32993 6.38581,7.4392 z"
       id="path4307-70"
       inkscape:connector-curvature="0" />
    <path
       style="stroke:#000000;stroke-width:1.28265607"
       d="m 665.92484,633.84006 c 0,4.12216 -2.86084,7.44564 -6.38581,7.44564 -3.52497,0 -6.38581,-3.32348 -6.38581,-7.4392 0,-4.10927 2.86084,-7.4392 6.38581,-7.4392 3.52497,0 6.38581,3.32993 6.38581,7.4392 z"
       id="path4307-5"
       inkscape:connector-curvature="0" />
    <text
       xml:space="preserve"
       style="font-style:normal;font-variant:normal;font-weight:normal;font-stretch:normal;font-size:27.5px;line-height:125%;font-family:Sans;-inkscape-font-specification:'Sans, Normal';text-align:start;letter-spacing:0px;word-spacing:0px;writing-mode:lr-tb;text-anchor:start;fill:#000000;fill-opacity:1;stroke:none;stroke-width:1px;stroke-linecap:butt;stroke-linejoin:miter;stroke-opacity:1"
       x="617.87115"
       y="617.68896"
       id="text4357-7-7-5"
       sodipodi:linespacing="125%"><tspan
         sodipodi:role="line"
         id="tspan4359-8-6-9"
         x="617.87115"
         y="617.68896"
         style="font-style:normal;font-variant:normal;font-weight:normal;font-stretch:normal;font-size:27.5px;line-height:125%;font-family:Sans;-inkscape-font-specification:'Sans, Normal';text-align:start;writing-mode:lr-tb;text-anchor:start;fill:#000000">contains</tspan><tspan
         sodipodi:role="line"
         x="617.87115"
         y="652.06396"
         style="font-style:normal;font-variant:normal;font-weight:normal;font-stretch:normal;font-size:27.5px;line-height:125%;font-family:Sans;-inkscape-font-specification:'Sans, Normal';text-align:start;writing-mode:lr-tb;text-anchor:start;fill:#000000"
         id="tspan4415-4" /></text>
    <text
       xml:space="preserve"
       style="font-style:normal;font-weight:normal;font-size:35.07458878px;line-height:125%;font-family:Sans;letter-spacing:0px;word-spacing:0px;fill:#ff0000;fill-opacity:1;stroke:none;stroke-width:1px;stroke-linecap:butt;stroke-linejoin:miter;stroke-opacity:1"
       x="683.44495"
       y="562.34778"
       id="text4361-3-1"
       sodipodi:linespacing="125%"
       transform="scale(0.98183449,1.0185016)"><tspan
         sodipodi:role="line"
         x="683.44495"
         y="562.34778"
         style="font-style:normal;font-variant:normal;font-weight:normal;font-stretch:normal;font-size:25px;line-height:125%;font-family:Sans;-inkscape-font-specification:'Sans, Normal';text-align:start;writing-mode:lr-tb;text-anchor:start;fill:#ff0000"
         id="tspan4493-6">S<tspan
   style="font-style:normal;font-variant:normal;font-weight:normal;font-stretch:normal;font-size:25px;line-height:125%;font-family:Sans;-inkscape-font-specification:'Sans, Normal';text-align:start;writing-mode:lr-tb;baseline-shift:sub;text-anchor:start;fill:#ff0000"
   id="tspan4542">1</tspan></tspan></text>
  </g>
</svg>
